<svg width="297" height="297" xmlns="http://www.w3.org/2000/svg" xmlns:xlink="http://www.w3.org/1999/xlink" xml:space="preserve" overflow="hidden"><g transform="translate(-2729 -550)"><path d="M2729 599.501C2729 572.162 2751.16 550 2778.5 550L2976.5 550C3003.84 550 3026 572.162 3026 599.501L3026 797.499C3026 824.838 3003.84 847 2976.5 847L2778.5 847C2751.16 847 2729 824.838 2729 797.499Z" fill-rule="evenodd"/><path d="M2895.94 682.012C2899.57 682.012 2902.59 683.496 2905.01 686.463 2907.44 689.429 2908.65 692.231 2908.65 694.868 2908.65 698.824 2913.05 701.626 2921.85 703.274 2930.65 704.922 2939.24 705.746 2947.6 705.746 2956.18 693.66 2962.23 686.847 2965.76 685.309 2967.08 684.869 2968.51 684.65 2970.05 684.65 2973.57 684.65 2975.33 688.166 2975.33 695.198 2975.33 702.23 2973.79 707.614 2970.71 711.35 2967.63 715.086 2962.23 718.602 2954.53 721.899 2941.55 733.765 2928.78 747.5 2916.24 763.103 2921.96 764.422 2930.65 767.004 2942.32 770.849 2953.98 774.695 2960.69 776.618 2962.45 776.618 2971.48 776.618 2982.59 762.004 2995.8 732.776 3001.74 719.591 3005.42 712.998 3006.85 712.998 3008.28 712.998 3009 714.646 3009 717.943 3009 721.239 3005.81 730.249 2999.43 744.973 2982.48 782.991 2966.42 802 2951.23 802 2949.69 802 2942.65 799.253 2930.1 793.759 2917.56 788.265 2908.1 785.518 2901.71 785.518 2896.21 793.649 2890.93 797.715 2885.87 797.715 2882.57 797.715 2880.92 794.693 2880.92 788.65 2880.92 782.606 2883.39 776.563 2888.34 770.52 2893.3 764.477 2898.63 761.455 2904.35 761.455 2919.76 744.314 2930.54 732.117 2936.71 724.865 2910.08 724.865 2893.24 720.69 2886.2 712.339 2882.68 708.164 2880.92 703.439 2880.92 698.165 2880.92 692.891 2882.51 688.88 2885.7 686.133 2888.89 683.386 2892.31 682.012 2895.94 682.012ZM2861.88 594C2865.18 594 2866.83 603.01 2866.83 621.03 2888.18 627.623 2906.55 630.919 2921.96 630.919 2931.86 630.919 2940.56 627.732 2948.04 621.36 2950.24 619.602 2952.17 618.723 2953.82 618.723 2955.47 618.723 2956.29 619.492 2956.29 621.03 2956.29 626.964 2951.89 632.292 2943.09 637.017 2934.28 641.742 2923.72 644.104 2911.4 644.104 2899.07 644.104 2884.22 642.566 2866.83 639.49 2867.27 669.816 2867.49 690.693 2867.49 702.12 2867.49 713.548 2867.11 723.327 2866.34 731.458 2865.57 739.589 2863.86 748.105 2861.22 757.005 2858.58 765.905 2855.11 773.377 2850.82 779.42 2846.53 785.463 2840.59 790.463 2832.99 794.418 2825.4 798.374 2816.6 800.352 2806.59 800.352 2796.57 800.352 2787.55 798.044 2779.52 793.43 2771.48 788.815 2767.47 781.672 2767.47 772.003 2767.47 766.07 2769.01 761.18 2772.09 757.334 2775.17 753.489 2779.3 751.566 2784.47 751.566 2789.64 751.566 2792.23 752.775 2792.23 755.192 2792.23 756.29 2791.57 758.433 2790.25 761.62 2788.92 764.806 2788.26 767.993 2788.26 771.179 2788.26 774.366 2790.3 777.827 2794.37 781.562 2798.44 785.298 2804.33 787.166 2812.03 787.166 2833.82 787.166 2844.71 755.192 2844.71 691.243L2844.71 635.204C2840.53 634.325 2834.48 632.952 2826.56 631.084 2818.63 629.216 2812.58 627.842 2808.4 626.964 2795.86 624.326 2785.95 623.008 2778.69 623.008 2764.83 623.008 2757.89 626.854 2757.89 634.545 2757.89 643.115 2760.81 650.368 2766.64 656.301 2772.47 662.234 2777.7 665.201 2782.32 665.201 2786.94 665.201 2791.07 663.992 2794.7 661.575 2798.33 659.158 2801.58 657.949 2804.44 657.949 2808.18 657.949 2810.05 659.872 2810.05 663.718 2810.05 667.563 2808.35 670.695 2804.93 673.113 2801.52 675.53 2796.19 676.738 2788.92 676.738 2777.26 676.738 2767.36 671.684 2759.21 661.575 2751.07 651.466 2747 641.138 2747 630.589 2747 620.041 2749.42 612.13 2754.26 606.856 2759.1 601.582 2765.16 598.945 2772.42 598.945 2789.14 598.945 2814.01 604.219 2847.02 614.767 2849.67 600.922 2854.62 594 2861.88 594Z" fill="#FFFFFF" fill-rule="evenodd"/></g></svg>